<svg version="1" xmlns="http://www.w3.org/2000/svg" width="1321.333" height="1321.333" viewBox="0 0 991.000000 991.000000"><path d="M463 .6c-1.9.2-10.2 1.1-18.5 2-102.9 10.7-199 52.6-276.1 120.5C75 205.2 16.5 318.1 2.4 443c-2.5 22.3-3 69.3-1 92 4.4 50.4 13.7 91.6 31.1 137.5 58.4 153.9 192.3 270 353.3 306.5 62.5 14.1 130.5 15.9 194.2 5 66.4-11.3 131.5-37.1 188.2-74.7C932.3 800.7 1016.4 608 984.4 413.8c-25.6-155.2-125.9-291.1-267-361.6C663.7 25.4 612.9 10.5 547 2.4 534.3.8 472.7-.5 463 .6zm208 467.1c0 .5-5.6 23.5-12.5 51.2-6.9 27.7-12.5 50.5-12.5 50.7 0 .2 15 .4 33.3.4h33.2l12.9-51.5 12.8-51.5h30.6l-12.9 51.2c-7.1 28.2-12.9 51.4-12.9 51.5 0 .2 16.4.3 36.5.3H816v32l-40.7.2-40.6.3-11.2 45.5-11.1 45.5 37.8.3 37.8.2v33l-42.2.2-42.2.3-12.4 50.5c-6.8 27.8-12.5 50.6-12.6 50.8-.2.1-7.1.1-15.3 0l-15-.3 12.3-50c6.8-27.5 12.3-50.3 12.4-50.8 0-.4-15-.7-33.4-.7h-33.4l-10.7 43.7c-5.9 24.1-11.5 46.9-12.4 50.8l-1.7 7-15.2.3c-8.4.1-15.2-.1-15.2-.5 0-.5 5.6-23.3 12.3-50.8l12.3-50-36.3-.3-36.3-.2v-33h81.5l11.1-45.8 11.1-45.7-37.4-.3-37.3-.2v-32l41.7-.2 41.8-.3 12.6-51c7-28.1 12.8-51.1 12.8-51.3.2-.6 30.1-.1 30.1.5z"/><path d="M626 646.7c-6.2 25.2-11.5 46.4-11.7 47-.4 1 6.7 1.3 33.5 1.3h34l11.6-46.5c6.4-25.6 11.6-46.7 11.6-47 0-.3-15.3-.5-33.9-.5h-33.9L626 646.7z"/></svg>